# xmcd
#
# Track frame offsets:
#	150
#	13225
#	24739
#	35409
#	46786
#	58160
#	71972
#	82139
#	96598
#	111075
#	122948
#	134160
#	147246
#	160149
#	169117
#	183096
#	195810
#
# Disc length: 2757 seconds
#
# Revision: 2
# Processed by: cddbd v1.5.2PL0 Copyright (c) Steve Scherf et al.
# Submitted via: EasyCDDAExtractor 10.0.3.1
#
DISCID=f90ac311
DTITLE=Various Artist - Golden Country
DYEAR=1900
DGENRE=Country
TTITLE0=Kenny Rogers - Ruby, don't take your love to town
TTITLE1=Freddy Fender - Before the next teardrop falls
TTITLE2=Ricky Nelson - Travelin' man
TTITLE3=Tom Jones - I'm so lonesome I could cry
TTITLE4=The Bellamy Brothers - Let your love flow
TTITLE5=Barbara Mandrell - Try to remember
TTITLE6=Carl Perkins - Daddy sang bass
TTITLE7=Anna Murray - A song for David
TTITLE8=Loretta Lynn - Coal miner's daughter
TTITLE9=Don Williams - On her way to be a woman
TTITLE10=Jim Reeves - If heartache is the fashion
TTITLE11=Charley Pride - Kaw-liga
TTITLE12=George Jones - Things have gone to pieces
TTITLE13=Burl Ives - A little bitty tear
TTITLE14=Willie Nelson - No tomorrow in sight
TTITLE15=The Oak Ridge Boys - The old country church
TTITLE16=Waylon Jennings - Sally was a good old girl
EXTD=
EXTT0=
EXTT1=
EXTT2=
EXTT3=
EXTT4=
EXTT5=
EXTT6=
EXTT7=
EXTT8=
EXTT9=
EXTT10=
EXTT11=
EXTT12=
EXTT13=
EXTT14=
EXTT15=
EXTT16=
PLAYORDER=
